<?xml version="1.0" encoding="utf-8"?>
<svg version="1.1" xmlns="http://www.w3.org/2000/svg" width="24" height="24" viewBox="0 0 24 24" enable-background="new 0 0 24 24">
 <g>
  <path d="M23.129,8.404L12.555,0.168c-0.336-0.224-0.773-0.224-1.109,0L0.871,8.404C0.326,8.777,0,9.395,0,10.055V11v7
		h24v-7v-0.945C24,9.395,23.674,8.777,23.129,8.404z" fill="#64b5f6"/>
  <path d="M19,24H5c-1.1,0-2-0.9-2-2V2c0-1.1,0.9-2,2-2h11l5,5v17C21,23.1,20.1,24,19,24z" fill="#eceff1"/>
  <path d="M11.496,17.706L0,11v11c0,1.1,0.9,2,2,2h20c1.1,0,2-0.9,2-2V11l-11.496,6.706
		C12.193,17.888,11.807,17.888,11.496,17.706z" fill="#2196f3"/>
  <path d="M0,21v1c0,1.1,0.9,2,2,2h20c1.1,0,2-0.9,2-2v-1l-12-7L0,21z" fill="#1976d2"/>
  <polygon points="18.5,2.5 16.56,4.384 21,9 21,5 	" fill="#cfd8dc"/>
  <path d="M16,0v3c0,0.536,0.214,1.024,0.56,1.384C16.924,4.763,17.436,5,18,5h3L16,0z" fill="#b0bec5"/>
  <polygon points="17.395,6 12,12 6.605,6 9.295,6 11,7.894 11,1 13,1 13,7.894 14.705,6 	" fill="#ff5722"/>
 </g>
</svg>
